<svg xmlns="http://www.w3.org/2000/svg" width="63" height="63" viewBox="0 0 63 63">
  <g id="Group_839" data-name="Group 839" transform="translate(-188 -4495)">
    <rect id="Rectangle_37" data-name="Rectangle 37" width="63" height="63" rx="12" transform="translate(188 4495)" fill="#f8f8f8"/>
    <g id="search" transform="translate(205 4512)">
      <path id="Path_540" data-name="Path 540" d="M6.558,148.158,5.528,152l-3.764.08a14.82,14.82,0,0,1-.109-13.815h0l3.351.614,1.468,3.331a8.829,8.829,0,0,0,.083,5.945Z" transform="translate(0 -130.277)" fill="#fbbb00"/>
      <path id="Path_541" data-name="Path 541" d="M275.839,208.176a14.789,14.789,0,0,1-5.274,14.3h0l-4.221-.215-.6-3.73a8.817,8.817,0,0,0,3.794-4.5h-7.911v-5.853h14.211Z" transform="translate(-246.508 -196.145)" fill="#518ef8"/>
      <path id="Path_542" data-name="Path 542" d="M52.8,317.859h0a14.8,14.8,0,0,1-22.293-4.526l4.794-3.925a8.8,8.8,0,0,0,12.679,4.5Z" transform="translate(-28.746 -291.528)" fill="#28b446"/>
      <path id="Path_543" data-name="Path 543" d="M51.207,3.406,46.415,7.33a8.8,8.8,0,0,0-12.97,4.607l-4.82-3.946h0A14.8,14.8,0,0,1,51.207,3.406Z" transform="translate(-26.97)" fill="#f14336"/>
    </g>
  </g>
</svg>
