<svg xmlns="http://www.w3.org/2000/svg" width="54.613" height="48" viewBox="0 0 54.613 48">
  <g id="like" transform="translate(0 -31)">
    <path id="Path_536" data-name="Path 536" d="M27.307,79a1.592,1.592,0,0,1-1.053-.4c-2.328-2.036-4.542-3.923-6.625-5.7C7.874,62.889,0,56.27,0,46.628,0,37.719,6.3,31,14.507,31c6.47,0,10.623,4.52,12.8,8.591C29.483,35.52,33.636,31,40.107,31c8.209,0,14.507,6.719,14.507,15.628,0,9.642-7.874,16.261-19.629,26.278-2.083,1.775-4.3,3.663-6.625,5.7A1.592,1.592,0,0,1,27.307,79Z" fill="#fd3018"/>
    <path id="Path_537" data-name="Path 537" d="M257.053,78.6c2.328-2.036,4.542-3.923,6.625-5.7,11.755-10.017,19.629-16.636,19.629-26.278,0-8.909-6.3-15.628-14.507-15.628-6.47,0-10.623,4.52-12.8,8.591V79A1.592,1.592,0,0,0,257.053,78.6Z" transform="translate(-228.693)" fill="#e61e14"/>
  </g>
</svg>
