<svg id="rating-star" data-name="rating-star" xmlns="http://www.w3.org/2000/svg" width="22.853" height="21.792" viewBox="0 0 22.853 21.792">
  <path id="Path_538" data-name="Path 538" d="M22.313,19.75l-7.4-.687-2.94-6.828a.593.593,0,0,0-1.09,0l-2.94,6.828-7.4.686A.593.593,0,0,0,.2,20.786l5.585,4.906L4.153,32.944a.593.593,0,0,0,.881.64l6.392-3.8,6.392,3.8a.593.593,0,0,0,.882-.64l-1.634-7.252,5.585-4.906A.593.593,0,0,0,22.313,19.75Z" transform="translate(0 -11.877)" fill="#54c296"/>
  <path id="Path_539" data-name="Path 539" d="M11.971,12.235a.593.593,0,0,0-1.09,0l-2.94,6.828-7.4.686A.593.593,0,0,0,.2,20.786l5.585,4.906L4.153,32.944a.593.593,0,0,0,.881.64l1.427-.847a26.161,26.161,0,0,1,6.964-17.126Z" transform="translate(0 -11.877)" fill="#54d5a1"/>
</svg>
