<svg xmlns="http://www.w3.org/2000/svg" width="17.58" height="26.522" viewBox="0 0 17.58 26.522">
  <g id="Group_699" data-name="Group 699" transform="translate(-958.74 -961.479)">
    <g id="noun_down_arrow_3798532" data-name="noun_down arrow_3798532" transform="translate(958.74 961.479)">
      <g id="_20_Down_Arrow_" data-name="20 Down Arrow " transform="translate(0 0)">
        <path id="Path_516" data-name="Path 516" d="M19.317,8,11.41,15.91a.879.879,0,0,1-1.248,0L2.254,8A.882.882,0,0,1,3.5,6.754l7.284,7.293,7.284-7.293A.882.882,0,1,1,19.317,8Z" transform="translate(-1.996 -6.496)" fill="#54c296"/>
      </g>
    </g>
    <g id="noun_down_arrow_3798532-2" data-name="noun_down arrow_3798532" transform="translate(958.74 970.346)" opacity="0.7">
      <g id="_20_Down_Arrow_2" data-name="20 Down Arrow " transform="translate(0 0)">
        <path id="Path_516-2" data-name="Path 516" d="M19.317,8,11.41,15.91a.879.879,0,0,1-1.248,0L2.254,8A.882.882,0,0,1,3.5,6.754l7.284,7.293,7.284-7.293A.882.882,0,1,1,19.317,8Z" transform="translate(-1.996 -6.496)" fill="#54c296"/>
      </g>
    </g>
    <g id="noun_down_arrow_3798532-3" data-name="noun_down arrow_3798532" transform="translate(958.74 978.327)" opacity="0.5">
      <g id="_20_Down_Arrow_3" data-name="20 Down Arrow " transform="translate(0 0)">
        <path id="Path_516-3" data-name="Path 516" d="M19.317,8,11.41,15.91a.879.879,0,0,1-1.248,0L2.254,8A.882.882,0,0,1,3.5,6.754l7.284,7.293,7.284-7.293A.882.882,0,1,1,19.317,8Z" transform="translate(-1.996 -6.496)" fill="#54c296"/>
      </g>
    </g>
  </g>
</svg>
